<?xml version="1.0" encoding="UTF-8" standalone="no"?>
<!-- Created with Inkscape (http://www.inkscape.org/) -->

<svg
   width="1905.5341"
   height="558.82166"
   viewBox="0 0 1905.5341 558.82166"
   version="1.1"
   id="svg1"
   inkscape:version="1.4.2 (f4327f4, 2025-05-13)"
   sodipodi:docname="Severed Fates Logo.svg"
   inkscape:export-filename="C:\Users\alexa\OneDrive\Desktop\Severed Fates Logo.png"
   inkscape:export-xdpi="96"
   inkscape:export-ydpi="96"
   xmlns:inkscape="http://www.inkscape.org/namespaces/inkscape"
   xmlns:sodipodi="http://sodipodi.sourceforge.net/DTD/sodipodi-0.dtd"
   xmlns:xlink="http://www.w3.org/1999/xlink"
   xmlns="http://www.w3.org/2000/svg"
   xmlns:svg="http://www.w3.org/2000/svg">
  <sodipodi:namedview
     id="namedview1"
     pagecolor="#ffffff"
     bordercolor="#000000"
     borderopacity="0.25"
     inkscape:showpageshadow="true"
     inkscape:pageopacity="0.0"
     inkscape:pagecheckerboard="true"
     inkscape:deskcolor="#d1d1d1"
     inkscape:document-units="px"
     inkscape:zoom="1.0851852"
     inkscape:cx="864.36859"
     inkscape:cy="279.21501"
     inkscape:window-width="2560"
     inkscape:window-height="1476"
     inkscape:window-x="-12"
     inkscape:window-y="-12"
     inkscape:window-maximized="1"
     inkscape:current-layer="layer1"
     showborder="false" />
  <defs
     id="defs1">
    <linearGradient
       id="linearGradient7"
       inkscape:collect="always">
      <stop
         style="stop-color:#ffffff;stop-opacity:1;"
         offset="0"
         id="stop7" />
      <stop
         style="stop-color:#868686;stop-opacity:1;"
         offset="1"
         id="stop8" />
    </linearGradient>
    <radialGradient
       inkscape:collect="always"
       xlink:href="#linearGradient7"
       id="radialGradient8"
       cx="1019.8224"
       cy="358.45007"
       fx="1019.8224"
       fy="358.45007"
       r="865.8858"
       gradientTransform="matrix(1.2110486,0,0,0.18671629,-168.3867,373.9602)"
       gradientUnits="userSpaceOnUse" />
    <filter
       style="color-interpolation-filters:sRGB"
       inkscape:label="Drop Shadow"
       id="filter44"
       x="-0.0051488301"
       y="-0.029998487"
       width="1.0134825"
       height="1.0785527">
      <feFlood
         result="flood"
         in="SourceGraphic"
         flood-opacity="0.498039"
         flood-color="rgb(0,0,0)"
         id="feFlood43" />
      <feGaussianBlur
         result="blur"
         in="SourceGraphic"
         stdDeviation="3.000000"
         id="feGaussianBlur43" />
      <feOffset
         result="offset"
         in="blur"
         dx="6.000000"
         dy="6.000000"
         id="feOffset43" />
      <feComposite
         result="comp1"
         operator="in"
         in="flood"
         in2="offset"
         id="feComposite43" />
      <feComposite
         result="comp2"
         operator="over"
         in="SourceGraphic"
         in2="comp1"
         id="feComposite44" />
    </filter>
    <filter
       style="color-interpolation-filters:sRGB"
       inkscape:label="Drop Shadow"
       id="filter46"
       x="-0.035396831"
       y="-0.1680916"
       width="1.0980024"
       height="1.4653929">
      <feFlood
         result="flood"
         in="SourceGraphic"
         flood-opacity="0.498039"
         flood-color="rgb(0,0,0)"
         id="feFlood44" />
      <feGaussianBlur
         result="blur"
         in="SourceGraphic"
         stdDeviation="3.000000"
         id="feGaussianBlur44" />
      <feOffset
         result="offset"
         in="blur"
         dx="6.000000"
         dy="6.000000"
         id="feOffset44" />
      <feComposite
         result="comp1"
         operator="in"
         in="flood"
         in2="offset"
         id="feComposite45" />
      <feComposite
         result="comp2"
         operator="over"
         in="SourceGraphic"
         in2="comp1"
         id="feComposite46" />
    </filter>
    <filter
       style="color-interpolation-filters:sRGB"
       inkscape:label="Drop Shadow"
       id="filter48"
       x="-0.033569075"
       y="-0.039409262"
       width="1.0929422"
       height="1.1091119">
      <feFlood
         result="flood"
         in="SourceGraphic"
         flood-opacity="0.498039"
         flood-color="rgb(0,0,0)"
         id="feFlood46" />
      <feGaussianBlur
         result="blur"
         in="SourceGraphic"
         stdDeviation="3.000000"
         id="feGaussianBlur46" />
      <feOffset
         result="offset"
         in="blur"
         dx="6.000000"
         dy="6.000000"
         id="feOffset46" />
      <feComposite
         result="comp1"
         operator="in"
         in="flood"
         in2="offset"
         id="feComposite47" />
      <feComposite
         result="comp2"
         operator="over"
         in="SourceGraphic"
         in2="comp1"
         id="feComposite48" />
    </filter>
    <filter
       style="color-interpolation-filters:sRGB"
       inkscape:label="Drop Shadow"
       id="filter50"
       x="-0.033569075"
       y="-0.10444268"
       width="1.0929422"
       height="1.2891692">
      <feFlood
         result="flood"
         in="SourceGraphic"
         flood-opacity="0.498039"
         flood-color="rgb(0,0,0)"
         id="feFlood48" />
      <feGaussianBlur
         result="blur"
         in="SourceGraphic"
         stdDeviation="3.000000"
         id="feGaussianBlur48" />
      <feOffset
         result="offset"
         in="blur"
         dx="6.000000"
         dy="6.000000"
         id="feOffset48" />
      <feComposite
         result="comp1"
         operator="in"
         in="flood"
         in2="offset"
         id="feComposite49" />
      <feComposite
         result="comp2"
         operator="over"
         in="SourceGraphic"
         in2="comp1"
         id="feComposite50" />
    </filter>
    <filter
       style="color-interpolation-filters:sRGB"
       inkscape:label="Drop Shadow"
       id="filter52"
       x="-0.033569061"
       y="-0.047836109"
       width="1.0929422"
       height="1.1324431">
      <feFlood
         result="flood"
         in="SourceGraphic"
         flood-opacity="0.498039"
         flood-color="rgb(0,0,0)"
         id="feFlood50" />
      <feGaussianBlur
         result="blur"
         in="SourceGraphic"
         stdDeviation="3.000000"
         id="feGaussianBlur50" />
      <feOffset
         result="offset"
         in="blur"
         dx="6.000000"
         dy="6.000000"
         id="feOffset50" />
      <feComposite
         result="comp1"
         operator="in"
         in="flood"
         in2="offset"
         id="feComposite51" />
      <feComposite
         result="comp2"
         operator="over"
         in="SourceGraphic"
         in2="comp1"
         id="feComposite52" />
    </filter>
    <filter
       style="color-interpolation-filters:sRGB"
       inkscape:label="Drop Shadow"
       id="filter54"
       x="-0.1680916"
       y="-0.082882592"
       width="1.4653929"
       height="1.2294761">
      <feFlood
         result="flood"
         in="SourceGraphic"
         flood-opacity="0.498039"
         flood-color="rgb(0,0,0)"
         id="feFlood52" />
      <feGaussianBlur
         result="blur"
         in="SourceGraphic"
         stdDeviation="3.000000"
         id="feGaussianBlur52" />
      <feOffset
         result="offset"
         in="blur"
         dx="6.000000"
         dy="6.000000"
         id="feOffset52" />
      <feComposite
         result="comp1"
         operator="in"
         in="flood"
         in2="offset"
         id="feComposite53" />
      <feComposite
         result="comp2"
         operator="over"
         in="SourceGraphic"
         in2="comp1"
         id="feComposite54" />
    </filter>
    <filter
       style="color-interpolation-filters:sRGB"
       inkscape:label="Drop Shadow"
       id="filter56"
       x="-0.033569067"
       y="-0.053983773"
       width="1.0929422"
       height="1.1494641">
      <feFlood
         result="flood"
         in="SourceGraphic"
         flood-opacity="0.498039"
         flood-color="rgb(0,0,0)"
         id="feFlood54" />
      <feGaussianBlur
         result="blur"
         in="SourceGraphic"
         stdDeviation="3.000000"
         id="feGaussianBlur54" />
      <feOffset
         result="offset"
         in="blur"
         dx="6.000000"
         dy="6.000000"
         id="feOffset54" />
      <feComposite
         result="comp1"
         operator="in"
         in="flood"
         in2="offset"
         id="feComposite55" />
      <feComposite
         result="comp2"
         operator="over"
         in="SourceGraphic"
         in2="comp1"
         id="feComposite56" />
    </filter>
    <filter
       style="color-interpolation-filters:sRGB"
       inkscape:label="Drop Shadow"
       id="filter58"
       x="-0.033569072"
       y="-0.054771308"
       width="1.0929422"
       height="1.1516447">
      <feFlood
         result="flood"
         in="SourceGraphic"
         flood-opacity="0.498039"
         flood-color="rgb(0,0,0)"
         id="feFlood56" />
      <feGaussianBlur
         result="blur"
         in="SourceGraphic"
         stdDeviation="3.000000"
         id="feGaussianBlur56" />
      <feOffset
         result="offset"
         in="blur"
         dx="6.000000"
         dy="6.000000"
         id="feOffset56" />
      <feComposite
         result="comp1"
         operator="in"
         in="flood"
         in2="offset"
         id="feComposite57" />
      <feComposite
         result="comp2"
         operator="over"
         in="SourceGraphic"
         in2="comp1"
         id="feComposite58" />
    </filter>
    <filter
       style="color-interpolation-filters:sRGB"
       inkscape:label="Drop Shadow"
       id="filter60"
       x="-0.039224549"
       y="-0.063987712"
       width="1.1086005"
       height="1.1771618">
      <feFlood
         result="flood"
         in="SourceGraphic"
         flood-opacity="0.498039"
         flood-color="rgb(0,0,0)"
         id="feFlood58" />
      <feGaussianBlur
         result="blur"
         in="SourceGraphic"
         stdDeviation="3.000000"
         id="feGaussianBlur58" />
      <feOffset
         result="offset"
         in="blur"
         dx="6.000000"
         dy="6.000000"
         id="feOffset58" />
      <feComposite
         result="comp1"
         operator="in"
         in="flood"
         in2="offset"
         id="feComposite59" />
      <feComposite
         result="comp2"
         operator="over"
         in="SourceGraphic"
         in2="comp1"
         id="feComposite60" />
    </filter>
    <filter
       style="color-interpolation-filters:sRGB"
       inkscape:label="Drop Shadow"
       id="filter62"
       x="-0.055984904"
       y="-0.040814971"
       width="1.1550046"
       height="1.1130039">
      <feFlood
         result="flood"
         in="SourceGraphic"
         flood-opacity="0.498039"
         flood-color="rgb(0,0,0)"
         id="feFlood60" />
      <feGaussianBlur
         result="blur"
         in="SourceGraphic"
         stdDeviation="3.000000"
         id="feGaussianBlur60" />
      <feOffset
         result="offset"
         in="blur"
         dx="6.000000"
         dy="6.000000"
         id="feOffset60" />
      <feComposite
         result="comp1"
         operator="in"
         in="flood"
         in2="offset"
         id="feComposite61" />
      <feComposite
         result="comp2"
         operator="over"
         in="SourceGraphic"
         in2="comp1"
         id="feComposite62" />
    </filter>
    <filter
       style="color-interpolation-filters:sRGB"
       inkscape:label="Drop Shadow"
       id="filter64"
       x="-0.034345119"
       y="-0.15819625"
       width="1.0950913"
       height="1.4379955">
      <feFlood
         result="flood"
         in="SourceGraphic"
         flood-opacity="0.498039"
         flood-color="rgb(0,0,0)"
         id="feFlood62" />
      <feGaussianBlur
         result="blur"
         in="SourceGraphic"
         stdDeviation="3.000000"
         id="feGaussianBlur62" />
      <feOffset
         result="offset"
         in="blur"
         dx="6.000000"
         dy="6.000000"
         id="feOffset62" />
      <feComposite
         result="comp1"
         operator="in"
         in="flood"
         in2="offset"
         id="feComposite63" />
      <feComposite
         result="comp2"
         operator="over"
         in="SourceGraphic"
         in2="comp1"
         id="feComposite64" />
    </filter>
    <filter
       style="color-interpolation-filters:sRGB;"
       inkscape:label="Drop Shadow"
       id="filter6"
       x="-0.16647432"
       y="-0.12700611"
       width="1.446255"
       height="1.3404329">
      <feFlood
         result="flood"
         in="SourceGraphic"
         flood-opacity="0.498039"
         flood-color="rgb(0,0,0)"
         id="feFlood5" />
      <feGaussianBlur
         result="blur"
         in="SourceGraphic"
         stdDeviation="3.4661924"
         id="feGaussianBlur5" />
      <feOffset
         result="offset"
         in="blur"
         dx="6.000000"
         dy="6.000000"
         id="feOffset5" />
      <feComposite
         result="comp1"
         operator="in"
         in="flood"
         in2="offset"
         id="feComposite5" />
      <feComposite
         result="comp2"
         operator="over"
         in="SourceGraphic"
         in2="comp1"
         id="feComposite6" />
    </filter>
    <filter
       style="color-interpolation-filters:sRGB;"
       inkscape:label="Drop Shadow"
       id="filter42"
       x="-0.057803413"
       y="-0.074671429"
       width="1.1529349"
       height="1.197564">
      <feFlood
         result="flood"
         in="SourceGraphic"
         flood-opacity="0.498039"
         flood-color="rgb(0,0,0)"
         id="feFlood41" />
      <feGaussianBlur
         result="blur"
         in="SourceGraphic"
         stdDeviation="2.8295502"
         id="feGaussianBlur41" />
      <feOffset
         result="offset"
         in="blur"
         dx="6.000000"
         dy="6.000000"
         id="feOffset41" />
      <feComposite
         result="comp1"
         operator="in"
         in="flood"
         in2="offset"
         id="feComposite41" />
      <feComposite
         result="comp2"
         operator="over"
         in="SourceGraphic"
         in2="comp1"
         id="feComposite42" />
    </filter>
    <filter
       inkscape:collect="always"
       style="color-interpolation-filters:sRGB"
       id="filter65"
       x="-0.012460565"
       y="-0.016096766"
       width="1.0249211"
       height="1.0321935">
      <feGaussianBlur
         inkscape:collect="always"
         stdDeviation="0.83451"
         id="feGaussianBlur65" />
    </filter>
    <filter
       inkscape:collect="always"
       style="color-interpolation-filters:sRGB"
       id="filter66"
       x="-0.012487213"
       y="-0.02884542"
       width="1.0249744"
       height="1.0576908">
      <feGaussianBlur
         inkscape:collect="always"
         stdDeviation="0.83451"
         id="feGaussianBlur66" />
    </filter>
    <filter
       inkscape:collect="always"
       style="color-interpolation-filters:sRGB"
       id="filter67"
       x="-0.018764455"
       y="-0.012489237"
       width="1.0375289"
       height="1.0249785">
      <feGaussianBlur
         inkscape:collect="always"
         stdDeviation="0.83451"
         id="feGaussianBlur67" />
    </filter>
    <filter
       inkscape:collect="always"
       style="color-interpolation-filters:sRGB"
       id="filter68"
       x="-0.023092633"
       y="-0.012998936"
       width="1.0461853"
       height="1.0259979">
      <feGaussianBlur
         inkscape:collect="always"
         stdDeviation="0.83451"
         id="feGaussianBlur68" />
    </filter>
    <filter
       inkscape:collect="always"
       style="color-interpolation-filters:sRGB"
       id="filter69"
       x="-0.01239241"
       y="-0.01225726"
       width="1.0247848"
       height="1.0245145">
      <feGaussianBlur
         inkscape:collect="always"
         stdDeviation="0.83451"
         id="feGaussianBlur69" />
    </filter>
    <filter
       inkscape:collect="always"
       style="color-interpolation-filters:sRGB"
       id="filter70"
       x="-0.037493833"
       y="-0.021566063"
       width="1.0749877"
       height="1.0431321">
      <feGaussianBlur
         inkscape:collect="always"
         stdDeviation="0.83451"
         id="feGaussianBlur70" />
    </filter>
    <filter
       inkscape:collect="always"
       style="color-interpolation-filters:sRGB"
       id="filter71"
       x="-0.015090256"
       y="-0.011445767"
       width="1.0301805"
       height="1.0228915">
      <feGaussianBlur
         inkscape:collect="always"
         stdDeviation="0.83451"
         id="feGaussianBlur71" />
    </filter>
    <filter
       inkscape:collect="always"
       style="color-interpolation-filters:sRGB"
       id="filter72"
       x="-0.012474768"
       y="-0.011640604"
       width="1.0249495"
       height="1.0232812">
      <feGaussianBlur
         inkscape:collect="always"
         stdDeviation="0.83451"
         id="feGaussianBlur72" />
    </filter>
    <filter
       inkscape:collect="always"
       style="color-interpolation-filters:sRGB"
       id="filter73"
       x="-0.012364638"
       y="-0.020638947"
       width="1.0247293"
       height="1.0412779">
      <feGaussianBlur
         inkscape:collect="always"
         stdDeviation="0.83451"
         id="feGaussianBlur73" />
    </filter>
    <filter
       inkscape:collect="always"
       style="color-interpolation-filters:sRGB"
       id="filter74"
       x="-0.012410609"
       y="-0.0095852293"
       width="1.0248212"
       height="1.0191705">
      <feGaussianBlur
         inkscape:collect="always"
         stdDeviation="0.83451"
         id="feGaussianBlur74" />
    </filter>
    <filter
       inkscape:collect="always"
       style="color-interpolation-filters:sRGB"
       id="filter75"
       x="-0.0472273"
       y="-0.022825362"
       width="1.0944807"
       height="1.0457022">
      <feGaussianBlur
         inkscape:collect="always"
         stdDeviation="0.83451"
         id="feGaussianBlur75" />
    </filter>
  </defs>
  <g
     inkscape:label="Layer 1"
     inkscape:groupmode="layer"
     id="layer1"
     transform="translate(-10.232418,-271.40849)">
    <text
       xml:space="preserve"
       style="font-style:normal;font-variant:normal;font-weight:normal;font-stretch:normal;font-size:232.521px;font-family:Elephant;-inkscape-font-specification:Elephant;text-align:start;letter-spacing:0px;writing-mode:lr-tb;direction:ltr;text-anchor:start;fill:url(#radialGradient8);fill-opacity:1;stroke-width:5;filter:url(#filter44);stroke-dasharray:none;stroke:#c1c1c1;stroke-opacity:1"
       x="18.037943"
       y="511.73502"
       id="text1"><tspan
         x="18.037943"
         y="511.73502"
         style="font-style:normal;font-variant:normal;font-weight:normal;font-stretch:normal;font-size:232.521px;font-family:Severed;-inkscape-font-specification:Severed;letter-spacing:0px;fill:url(#radialGradient8);fill-opacity:1;stroke:#c1c1c1;stroke-width:5;stroke-opacity:1;stroke-dasharray:none"
         rotate="0 0 0 0 0 0 0 0 0"
         dx="0 0 0 0 0 0 0 2.7611907"
         dy="0 0 0 0 0 0 0 -90.828644"
         id="tspan6"
         sodipodi:role="line"><tspan
   style="letter-spacing:0px;fill:url(#radialGradient8);fill-opacity:1;stroke:#c1c1c1;stroke-width:5;stroke-opacity:1;stroke-dasharray:none"
   id="tspan2"
   dy="0 -90.828644"><tspan
     style="font-size:322.947px;letter-spacing:12.1105px;fill:url(#radialGradient8);fill-opacity:1;stroke:#c1c1c1;stroke-width:5;stroke-opacity:1;stroke-dasharray:none"
     id="tspan4"
     dy="90.828644">S</tspan><tspan
     style="letter-spacing:12.1105px;fill:url(#radialGradient8);stroke:#c1c1c1;stroke-width:5;stroke-opacity:1;stroke-dasharray:none"
     id="tspan1">EVERE</tspan><tspan
     style="font-size:322.947px;letter-spacing:0px;fill:url(#radialGradient8);fill-opacity:1;stroke:#c1c1c1;stroke-width:5;stroke-opacity:1;stroke-dasharray:none"
     id="tspan3"
     dy="90.828644"
     dx="0">D</tspan></tspan>d</tspan></text>
    <path
       id="text5"
       style="font-size:266.667px;font-family:Severed;-inkscape-font-specification:Severed;text-align:start;letter-spacing:10px;writing-mode:lr-tb;direction:ltr;text-anchor:start;fill:#7e3943;fill-opacity:1;stroke:none;stroke-linecap:round;stroke-linejoin:round;stroke-opacity:1;filter:url(#filter66)"
       d="M 1463.59 743.233 L 1465.4 751.263 L 1465.19 759.457 C 1465.19 761.891 1465.92 764.223 1465.21 766.215 C 1464.46 768.319 1463.17 769.707 1461.78 771.539 C 1460.5 773.232 1457.17 774.758 1455.47 776.405 C 1453.77 778.136 1453.05 780.21 1451.11 781.441 C 1449.09 782.72 1446.8 783.354 1444.55 784.023 C 1442.33 784.681 1440.49 785.288 1438.06 785.288 L 1428.23 785.393 L 1419.29 785.255 L 1411.09 785.457 L 1401.75 784.19 L 1393.46 784.435 L 1384.25 784.854 C 1380.92 784.854 1378.51 785.635 1375.41 785.496 C 1372.08 785.347 1368.35 784.611 1365.28 784.214 C 1361.98 783.789 1359.44 781.927 1356.43 781.109 C 1353.27 780.248 1349.6 779.806 1346.76 778.384 C 1344.12 777.052 1342.01 775.075 1340.13 773.592 C 1337.8 771.752 1335.66 770.514 1334.39 768.454 C 1332.92 766.087 1332.97 763.264 1332.73 760.626 C 1332.79 763.374 1333.77 767.168 1334.13 769.787 C 1334.49 772.498 1333.68 774.335 1334.4 776.894 C 1335.13 779.504 1336.28 781.307 1337.42 783.742 C 1338.55 786.161 1339.8 789.878 1341.38 792.11 C 1342.89 794.259 1345.96 795.225 1347.92 797.186 C 1349.97 799.231 1350.55 801.236 1352.8 802.797 C 1355.14 804.419 1358.66 806.744 1361.2 807.888 C 1363.75 809.038 1364.99 808.345 1367.73 809.058 C 1370.41 809.757 1374.36 811.974 1377.19 812.297 C 1379.93 812.609 1382.91 811.589 1385.77 811.589 L 1395.05 811.281 L 1403.01 811.364 L 1411.54 812.475 L 1421.29 812.666 L 1429.05 811.848 L 1437.94 812.323 C 1440.8 812.323 1445.19 810.834 1447.92 810.501 C 1450.74 810.156 1453.13 810.404 1455.79 809.67 C 1458.5 808.923 1461.34 807.17 1463.87 805.985 C 1466.39 804.81 1467.14 803.766 1469.46 802.127 C 1471.69 800.55 1474.89 799.221 1476.93 797.183 C 1478.97 795.147 1481.19 793.471 1482.83 791.247 C 1484.52 788.949 1486.25 785.811 1487.52 783.326 C 1488.8 780.811 1489.72 777.885 1490.56 775.193 C 1491.4 772.53 1492.01 770.016 1492.42 767.193 C 1492.82 764.457 1491.88 762.623 1491.88 759.748 L 1493.12 755.102 C 1490.11 754.182 1485.92 753.215 1482.85 752.142 C 1479.8 751.078 1477.14 749.164 1474.17 748.035 C 1471.08 746.859 1467.61 747.038 1464.75 745.885 Z"
       sodipodi:nodetypes="cscssccssssscc" />
    <path
       id="path15"
       style="font-size:266.667px;font-family:Severed;-inkscape-font-specification:Severed;text-align:start;letter-spacing:10px;writing-mode:lr-tb;direction:ltr;text-anchor:start;fill:#aa2734;stroke:none;stroke-linecap:round;stroke-linejoin:round;stroke-opacity:1;fill-opacity:1;filter:url(#filter74)"
       d="M 1367.79 692.36 C 1370.96 693.107 1374.54 694.709 1377.66 695.526 C 1380.41 695.938 1383.53 695.508 1386.44 695.508 L 1394.59 691.768 L 1404.45 686.082 L 1412.34 682.748 L 1422.52 677.928 L 1431 672.427 L 1438.71 668.658 C 1441.13 668.658 1444.07 669.465 1446.26 670.046 C 1448.51 670.646 1449.97 671.961 1451.98 673.179 C 1453.9 674.344 1456.74 674.608 1458.44 676.339 C 1460.17 678.042 1460.38 681.039 1461.54 682.964 C 1462.76 684.976 1464.13 685.595 1464.73 687.85 C 1465.31 690.038 1466.87 693.542 1466.87 695.959 L 1465.89 705.347 L 1465.5 714.101 L 1467.1 723.749 L 1466.6 733.573 C 1469.45 734.721 1472.25 737.078 1475.24 738.197 C 1478.14 739.287 1480.12 740.546 1483.11 741.571 C 1486.07 742.587 1489.44 742.584 1492.43 743.498 L 1491.81 733.994 L 1492 725.169 L 1492.69 715.235 L 1493.13 705.649 L 1493.43 695.987 C 1493.43 693.123 1493.17 689.935 1492.77 687.233 C 1492.36 684.428 1491.64 680.964 1490.8 678.333 C 1489.95 675.669 1488.97 674.034 1487.68 671.548 C 1486.41 669.1 1483.23 666.503 1481.54 664.229 C 1479.9 662.042 1479.77 658.981 1477.75 656.955 C 1475.72 654.929 1473.05 653.333 1470.86 651.701 C 1468.59 650.004 1467.04 648.518 1464.6 647.247 C 1462.11 645.957 1457.86 646.483 1455.19 645.632 C 1452.56 644.792 1451.38 642.797 1448.58 642.385 C 1445.88 641.988 1442.54 643.029 1439.68 643.029 L 1429.84 646.744 L 1420.74 650.496 L 1412.44 654.75 L 1403.84 660.017 L 1394.32 663.559 L 1385.98 669.35 C 1383.56 669.35 1380.85 668.53 1378.67 667.97 C 1376.4 667.386 1374.03 666.204 1372.03 665.013 C 1370.09 663.861 1369.66 663.5 1367.96 661.779 C 1366.23 660.077 1364.98 657.578 1363.82 655.652 C 1362.6 653.64 1360.92 650.655 1360.32 648.4 C 1359.74 646.212 1359.62 644.876 1359.62 642.459 L 1359.98 633.451 L 1360 625.333 L 1358.61 615.602 L 1359.14 605.959 L 1358.88 598.704 L 1359.12 588.312 C 1359.12 585.886 1358.89 584.16 1359.46 581.978 C 1360.05 579.709 1361.41 577.641 1362.62 575.636 C 1363.79 573.705 1364.73 572.22 1366.47 570.533 C 1368.16 568.79 1370.88 566.872 1372.81 565.703 C 1374.81 564.489 1376.1 564.18 1378.37 563.584 C 1380.55 563.011 1383.75 562.274 1386.17 562.274 L 1394.07 562.616 L 1403.51 562.647 L 1412.64 562.387 L 1421.07 561.507 L 1429.89 561.664 L 1438.89 562.821 C 1442.23 562.821 1445.17 562.711 1448.28 562.978 C 1451.61 563.263 1456.04 562.841 1459.11 563.431 C 1462.38 564.062 1466.01 564.413 1468.99 565.391 C 1472.14 566.425 1474.77 567.859 1477.59 569.282 C 1480.25 570.615 1482.05 572.155 1484.03 573.63 C 1486.46 575.435 1487.43 578.37 1488.83 580.388 C 1490.48 582.758 1492.64 584.962 1492.88 587.626 C 1492.82 584.861 1492.43 582.723 1492 580.116 C 1491.55 577.413 1491.43 574.032 1490.59 571.499 C 1489.73 568.933 1488.62 565.647 1487.35 563.256 C 1486.1 560.898 1484.93 560.116 1483.27 557.929 C 1481.68 555.821 1478.81 552.995 1476.85 551.047 C 1474.84 549 1472.24 548.229 1470.06 546.581 C 1467.79 544.868 1465.9 543.345 1463.45 542.062 C 1460.97 540.762 1459.17 539.244 1456.5 538.387 C 1453.87 537.542 1450.18 536.463 1447.36 536.049 C 1444.66 535.652 1442.87 535.309 1440 535.309 L 1430.63 534.549 L 1422.52 536.481 L 1412.74 535.168 L 1403.88 534.595 L 1395.08 534.583 L 1385.06 535.254 C 1382.2 535.254 1381.34 535.189 1378.63 535.591 C 1375.82 536.008 1373.1 537.301 1370.47 538.15 C 1367.81 539.009 1364.24 540.514 1361.75 541.816 C 1359.31 543.098 1357.3 544.101 1355.03 545.812 C 1352.85 547.455 1351.41 549.508 1349.39 551.547 C 1347.37 553.573 1343.85 555.343 1342.22 557.53 C 1340.52 559.805 1338.95 561.259 1337.68 563.707 C 1336.39 566.193 1335.85 569.623 1335 572.288 C 1334.16 574.918 1332.86 576.871 1332.45 579.676 C 1332.06 582.378 1332.78 586.495 1332.78 589.358 L 1332.05 598.132 L 1332.82 607.139 L 1332.62 615.382 L 1332.08 623.702 L 1333.59 633.485 L 1333.1 641.471 C 1333.1 644.335 1333.82 648.059 1334.21 650.761 C 1334.62 653.566 1334.3 656.567 1335.14 659.198 C 1335.99 661.862 1338.02 663.79 1339.31 666.275 C 1340.58 668.724 1341.57 671.885 1343.27 674.159 C 1344.9 676.346 1346.47 677.334 1348.49 679.36 C 1350.39 681.258 1352.16 683.493 1354.2 685.046 C 1356.32 686.658 1358.53 688.172 1360.8 689.411 C 1363.11 690.672 1365.77 691.007 1368.24 691.881 Z" />
    <path
       id="path14"
       style="font-size:266.667px;font-family:Severed;-inkscape-font-specification:Severed;text-align:start;letter-spacing:10px;writing-mode:lr-tb;direction:ltr;text-anchor:start;fill:#7e3943;fill-opacity:1;stroke:none;stroke-linecap:round;stroke-linejoin:round;stroke-opacity:1;filter:url(#filter73)"
       d="M 1110.13 716.832 L 1109.46 725.69 L 1108.34 733.851 L 1109.21 743.169 L 1108.43 750.588 L 1108.75 760.092 C 1108.75 762.952 1108.87 765.442 1109.33 768.079 C 1109.81 770.847 1109.58 773.698 1110.53 776.254 C 1111.49 778.834 1113.02 781.394 1114.42 783.793 C 1115.8 786.133 1117.71 788.171 1119.47 790.372 C 1121.15 792.474 1123.29 794.316 1125.29 796.32 C 1127.28 798.307 1128.21 800.33 1130.26 801.97 C 1132.43 803.71 1135.69 805.862 1137.99 807.194 C 1140.35 808.566 1142.41 808.384 1144.96 809.303 C 1147.47 810.208 1149.67 812.121 1152.41 812.568 C 1154.99 812.989 1158.11 813.078 1160.94 813.078 L 1169.16 812.973 L 1179.02 812.163 L 1189.16 813.243 L 1197.93 812.135 L 1205.86 813.581 L 1215.15 812.04 C 1217.98 812.04 1221.51 811.808 1224.1 811.408 C 1226.86 810.983 1229.85 811.913 1232.37 811.044 C 1234.95 810.158 1236.79 808.9 1239.17 807.561 C 1241.5 806.255 1244.41 804.991 1246.59 803.263 C 1248.66 801.631 1249.6 798.833 1251.58 796.833 C 1253.58 794.847 1256.48 792.252 1258.19 790.019 C 1259.91 787.777 1261.22 786.378 1262.6 783.929 C 1263.99 781.466 1264.66 779.293 1265.66 776.663 C 1266.66 774.024 1266.92 771.408 1267.48 768.643 C 1268.03 765.889 1269.43 761.429 1269.49 758.593 C 1269.25 761.244 1267.17 764.434 1265.35 767.132 C 1263.85 769.377 1262.71 772.564 1260.26 774.567 C 1258.11 776.318 1254.93 777.569 1252.16 778.956 C 1249.34 780.38 1247.18 781.013 1244.05 781.848 C 1241.07 782.644 1237.65 783.042 1234.38 783.436 C 1231.34 783.801 1227.55 783.574 1224.24 783.701 C 1221.18 783.819 1218.84 785.285 1215.54 785.285 L 1205.62 784.789 L 1197.79 785.403 L 1187.41 785.967 L 1180.13 785.62 L 1170.36 785.716 L 1161.09 784.385 C 1158.7 784.385 1157.05 784.132 1154.87 783.738 C 1152.57 783.321 1150.38 783.266 1148.34 782.224 C 1146.37 781.219 1143.74 779.339 1142.04 777.583 C 1140.27 775.874 1139.57 775.068 1138.54 773.007 C 1137.49 770.911 1137.55 769.22 1137.11 766.865 C 1136.68 764.596 1135.62 761.284 1135.62 758.872 L 1135.18 750.819 L 1135.03 742.299 L 1134.48 732.636 L 1135.57 724.404 L 1134.86 716.54 C 1131.91 716.836 1129.26 716.639 1126.26 716.879 C 1123.29 717.118 1118.89 717.283 1115.91 717.496 C 1112.92 717.71 1110.47 716.871 1107.51 717.089 Z"
       sodipodi:nodetypes="csssscccsscscc" />
    <path
       id="path13"
       style="font-size:266.667px;font-family:Severed;-inkscape-font-specification:Severed;text-align:start;letter-spacing:10px;writing-mode:lr-tb;direction:ltr;text-anchor:start;fill:#aa2734;stroke:none;stroke-linecap:round;stroke-linejoin:round;stroke-opacity:1;fill-opacity:1;filter:url(#filter72)"
       d="M 1110.44 706.804 C 1113.39 706.586 1115.37 706.655 1118.32 706.413 C 1121.27 706.17 1124.08 706.36 1127.03 706.092 C 1129.98 705.824 1132.57 705.739 1135.52 705.444 L 1136.72 695.701 L 1144.93 696.316 L 1154.26 695.571 L 1163.16 695.826 C 1166.04 695.826 1168.38 696.094 1171.08 695.699 C 1173.9 695.288 1175.81 693.601 1178.45 692.764 C 1181.12 691.915 1184.26 691.415 1186.75 690.126 C 1189.21 688.855 1192.17 686.919 1194.45 685.221 C 1196.65 683.585 1198.66 681.958 1200.69 679.927 C 1202.65 677.97 1204.14 675.678 1205.73 673.569 C 1207.38 671.378 1209.1 669.474 1210.35 667.12 C 1211.63 664.728 1212.02 662.704 1212.88 660.144 C 1213.73 657.611 1214.28 653.844 1214.73 651.146 C 1215.17 648.538 1215.26 647.129 1215.32 644.369 C 1215.08 647.027 1214.19 648.75 1212.54 651.104 C 1211.13 653.112 1209.81 656.075 1207.38 657.861 C 1205.39 659.32 1202.31 660.374 1199.64 661.685 C 1196.8 663.104 1195.11 663.477 1191.95 664.51 C 1188.95 665.488 1184.98 666.187 1181.7 666.818 C 1178.62 667.411 1174.82 668.196 1171.48 668.483 C 1168.35 668.751 1166.75 667.984 1163.4 667.984 L 1153.96 669.339 L 1145.29 669.376 L 1136.55 668.644 L 1135.11 658.247 L 1135.7 648.626 L 1135.3 639.745 L 1135.61 628.409 L 1136.54 618.715 L 1136.57 609.345 L 1136.42 599.465 L 1135.66 588.661 C 1135.66 586.235 1135.79 583.675 1136.36 581.493 C 1136.95 579.224 1138.48 577.3 1139.69 575.295 C 1140.86 573.364 1142.37 572.808 1144.11 571.121 C 1145.8 569.378 1146.86 566.6 1148.79 565.431 C 1150.79 564.217 1153.27 562.823 1155.54 562.227 C 1157.72 561.654 1160.15 561.686 1162.57 561.686 L 1171.6 562.954 L 1181.27 563.03 L 1190.08 562.176 L 1198.43 562.471 L 1206.24 563.06 L 1215.68 561.829 C 1219.02 561.829 1223.45 562.668 1226.56 562.935 C 1229.89 563.22 1232.55 563.971 1235.62 564.562 C 1238.9 565.192 1241.99 565.772 1244.97 566.75 C 1248.12 567.784 1250.95 568.525 1253.77 569.948 C 1256.43 571.281 1259.62 572.642 1261.6 574.117 C 1264.03 575.922 1265.31 578.101 1266.71 580.119 C 1268.36 582.489 1269.19 584.404 1269.43 587.068 C 1269.37 584.303 1268.6 581.137 1268.17 578.53 C 1267.72 575.827 1268.06 573.336 1267.22 570.803 C 1266.36 568.237 1264.23 567.059 1262.97 564.668 C 1261.72 562.31 1261.08 559.561 1259.43 557.374 C 1257.84 555.266 1255.14 552.766 1253.18 550.818 C 1251.16 548.771 1248.9 546.523 1246.72 544.875 C 1244.45 543.162 1242.97 542.931 1240.52 541.648 C 1238.04 540.348 1234.52 539.558 1231.85 538.701 C 1229.22 537.856 1226.45 536.999 1223.64 536.585 C 1220.94 536.188 1219.94 535.646 1217.07 535.646 L 1207.03 534.749 L 1197.9 535.395 L 1189.01 536.504 L 1179.84 535.926 L 1172.3 535.52 L 1162.94 535.903 C 1160.07 535.903 1156.49 534.992 1153.78 535.394 C 1150.97 535.811 1149.23 537.988 1146.6 538.837 C 1143.93 539.696 1140.6 539.339 1138.11 540.641 C 1135.67 541.923 1133.34 544.25 1131.07 545.961 C 1128.88 547.604 1128.12 550.058 1126.1 552.097 C 1124.08 554.123 1121.42 555.295 1119.78 557.482 C 1118.09 559.757 1116.9 562.903 1115.63 565.351 C 1114.34 567.837 1112.68 570.404 1111.83 573.069 C 1110.99 575.699 1109.82 578.433 1109.41 581.238 C 1109.01 583.94 1109.02 585.964 1109.02 588.827 L 1109.01 599.115 L 1110.05 609.371 L 1109.83 617.969 L 1109.39 628.509 L 1110.43 637.831 L 1109.25 647.511 L 1110.24 657.882 L 1109.63 667.861 L 1109.21 677.489 L 1109.93 688.17 L 1110.06 696.801 L 1108.88 706.566 Z" />
    <path
       id="path12"
       style="font-size:266.667px;font-family:Severed;-inkscape-font-specification:Severed;text-align:start;letter-spacing:10px;writing-mode:lr-tb;direction:ltr;text-anchor:start;fill:#7e3943;fill-opacity:1;stroke:none;stroke-linecap:round;stroke-linejoin:round;stroke-opacity:1;filter:url(#filter70)"
       d="M 951.566 720.978 L 952.121 730.346 L 952.457 740.209 L 951.425 749.357 L 951.118 759.446 C 951.118 762.803 951.927 765.713 951.607 768.833 C 951.265 772.165 950.333 774.523 949.658 777.594 C 948.941 780.854 949.123 784.301 948.069 787.277 C 946.96 790.408 945.085 792.617 943.647 795.445 C 942.31 798.141 941.303 802.164 939.779 804.324 C 937.991 806.858 936.069 808.376 934.062 809.979 C 931.638 811.915 927.63 812.188 924.953 812.429 C 927.778 812.365 931.536 813.487 934.301 812.961 C 937.067 812.434 939.574 810.641 942.23 809.688 C 944.877 808.738 946.588 808.527 949.075 807.189 C 951.552 805.857 954.985 803.336 957.253 801.655 C 959.513 799.979 962.178 798.792 964.182 796.805 C 966.214 794.773 966.881 791.813 968.426 789.608 C 970.045 787.296 972.456 784.619 973.589 782.121 C 974.733 779.601 975.985 778.551 976.686 775.846 C 977.37 773.206 977.844 769.386 978.155 766.574 C 978.453 763.883 978.355 760.744 978.355 757.9 L 977.748 749.285 L 977.341 739.302 L 977.844 731.001 L 977.948 721.625 C 975.015 721.581 972.107 720.363 969.296 720.245 C 966.422 720.124 964.98 720.927 962.111 720.796 C 959.296 720.667 956.444 720.677 953.516 720.603 Z"
       sodipodi:nodetypes="cscccscc" />
    <path
       id="path11"
       style="font-size:266.667px;font-family:Severed;-inkscape-font-specification:Severed;text-align:start;letter-spacing:10px;writing-mode:lr-tb;direction:ltr;text-anchor:start;fill:#aa2734;stroke:none;stroke-linecap:round;stroke-linejoin:round;stroke-opacity:1;fill-opacity:1;filter:url(#filter71)"
       d="M 952.425 709.571 C 955.373 709.645 958.026 709.932 960.98 709.997 C 963.929 710.063 967.769 710.608 970.723 710.663 C 973.672 710.718 977.161 710.284 980.114 710.328 L 979.167 700.879 L 980.143 691.142 L 980.334 681.807 L 979.571 670.262 L 978.483 662.115 L 979.923 651.396 L 980.338 641.71 L 979.628 630.664 L 980.015 620.95 L 979.849 612.116 L 980.144 601.003 L 980.36 591.077 L 980.29 581.147 L 979.77 572.599 L 978.679 563.158 C 982.03 563.158 985.515 562.524 988.642 562.793 C 991.98 563.079 996.471 564.086 999.554 564.679 C 1002.84 565.31 1005.51 566.098 1008.5 567.076 C 1011.66 568.108 1014.02 568.677 1016.86 570.096 C 1019.52 571.429 1022.19 572.135 1024.17 573.61 C 1026.6 575.415 1028.39 578.51 1029.8 580.528 C 1031.45 582.898 1032.88 584.873 1033.12 587.537 C 1033.05 584.772 1032.46 581.748 1032.03 579.141 C 1031.58 576.438 1031.82 575.047 1030.97 572.514 C 1030.11 569.948 1027.52 566.32 1026.25 563.929 C 1025 561.571 1024.17 559.779 1022.52 557.592 C 1020.93 555.484 1018.48 553.744 1016.52 551.796 C 1014.49 549.752 1012.2 548.099 1010.01 546.453 C 1007.73 544.74 1006.16 543.499 1003.7 542.217 C 1001.21 540.916 998.141 538.105 995.464 537.247 C 992.824 536.401 991.204 536.806 988.385 536.391 C 985.673 535.991 983.111 535.684 980.233 535.684 L 970.476 536.099 L 961.357 535.796 L 953.276 536.34 C 950.398 536.34 947.553 535.385 944.84 535.785 C 942.022 536.2 939.055 537.937 936.414 538.783 C 933.738 539.641 930.758 540.133 928.264 541.434 C 925.807 542.716 924.672 543.13 922.393 544.842 C 920.201 546.489 917.076 549.668 915.049 551.712 C 913.084 553.66 911.933 555.376 910.342 557.484 C 908.69 559.671 906.054 560.997 904.803 563.355 C 903.534 565.746 902.169 568.332 901.312 570.897 C 900.465 573.431 901.197 576.959 900.749 579.662 C 900.317 582.269 900.459 585.601 900.397 588.366 C 900.638 585.702 900.525 582.537 902.175 580.167 C 903.581 578.149 906.441 576.902 908.869 575.097 C 910.852 573.622 912.603 571.955 915.269 570.622 C 918.107 569.203 919.978 567.919 923.138 566.887 C 926.132 565.909 930.314 563.598 933.598 562.967 C 936.681 562.374 940.433 561.957 943.772 561.671 C 946.899 561.402 948.691 562.888 952.042 562.888 L 952.975 572.071 L 952.614 581.422 L 951.929 592.455 L 952.456 601.735 L 953.772 610.903 L 952.885 620.896 L 953.724 631.974 L 952.947 641.326 L 953.858 649.954 L 953.381 661.325 L 953.276 670.921 L 953.199 680.28 L 953.689 691.136 L 951.913 700.754 L 952.715 709.711 Z" />
    <path
       id="path10"
       style="font-size:266.667px;font-family:Severed;-inkscape-font-specification:Severed;text-align:start;letter-spacing:10px;writing-mode:lr-tb;direction:ltr;text-anchor:start;fill:#7e3943;fill-opacity:1;stroke:#000000;stroke-linecap:round;stroke-linejoin:round;stroke-opacity:1;filter:url(#filter75)"
       d="M 795.243 702.233 L 796.496 712.658 L 795.945 721.085 L 795.477 731.436 L 796.28 740.796 L 796.636 749.482 L 795.078 759.672 C 795.078 763.045 794.653 765.112 794.341 768.282 C 794.011 771.641 794.658 774.637 794.002 777.752 C 793.306 781.056 793.221 785.646 792.188 788.656 C 791.091 791.849 789.515 794.519 788.072 797.357 C 786.771 799.981 784.159 802.091 782.722 803.924 C 780.912 806.231 779.044 808.692 777.006 809.91 C 774.693 811.292 771.826 810.585 769.199 810.821 C 772.58 810.744 777.613 811.605 780.671 811.141 C 783.955 810.641 786.044 809.491 789.026 808.414 C 792.032 807.329 795.428 806.213 798.2 804.405 C 800.771 802.728 802.204 800.47 804.637 798.057 C 806.692 796.002 810.106 792.747 811.817 790.473 C 813.559 788.159 814.37 787.233 815.724 784.717 C 817.09 782.18 818.3 778.638 819.238 775.922 C 820.173 773.218 820.222 769.76 820.7 766.905 C 821.17 764.105 821.036 762.012 821.036 759.093 L 820.817 750.096 L 820.691 741.603 L 822.153 734.512 L 821.886 725.254 L 822.165 717.847 L 820.531 708.804 C 818.696 708.717 818.082 709.066 816.36 708.614 C 814.644 708.164 812.735 706.173 810.948 705.801 C 808.239 705.237 805.596 704.598 803.018 703.734 C 800.395 702.856 797.785 702.614 795.257 701.629 Z"
       sodipodi:nodetypes="cscccscsc" />
    <path
       id="path9"
       style="font-size:266.667px;font-family:Severed;-inkscape-font-specification:Severed;text-align:start;letter-spacing:10px;writing-mode:lr-tb;direction:ltr;text-anchor:start;fill:#7e3943;fill-opacity:1;stroke:none;stroke-linecap:round;stroke-linejoin:round;stroke-opacity:1;filter:url(#filter68)"
       d="M 662.155 658.875 L 661.89 669.289 L 661.819 677.259 L 661.272 685.866 L 661.677 695.332 L 661.752 705.046 L 662.694 713.697 L 662.58 723.839 L 662.733 731.316 L 663.008 740.564 L 662.426 751.176 L 662.273 758.927 C 662.273 761.809 662.221 764.234 662.647 766.945 C 663.089 769.759 663.341 773.717 664.227 776.35 C 665.124 779.013 666.667 781.384 668.002 783.865 C 669.316 786.308 670.352 787.926 672.076 790.195 C 673.739 792.385 675.912 795.923 677.942 797.953 C 679.893 799.904 682.995 801.427 685.097 803.032 C 687.274 804.694 689.02 806.506 691.362 807.785 C 693.739 809.082 695.454 809.922 698.004 810.813 C 700.527 811.694 704.208 811.316 706.905 811.787 C 709.506 812.242 712.606 812.889 715.372 812.951 C 712.687 812.711 709.099 810.65 706.76 808.773 C 704.811 807.21 702.644 805.613 700.896 803.094 C 699.438 800.992 699.034 798.66 697.692 795.998 C 696.275 793.164 694.036 790.506 692.796 787.339 C 691.63 784.363 691.369 780.553 690.493 777.29 C 689.663 774.196 689.542 771.58 689.086 768.234 C 688.654 765.067 687.729 762.555 687.729 759.167 L 687.241 748.622 L 687.149 738.667 L 687.887 728.297 L 687.193 717.929 L 687.121 708.998 L 687.738 699.529 L 687.872 689.444 L 688.4 679.426 L 695.335 679.63 L 703.959 679.704 L 713.077 678.468 L 723.067 679.91 L 730.587 679.822 L 738.649 678.835 L 747.338 678.876 C 745.447 677.98 744.019 678.085 742.559 677.131 C 741.102 676.179 740.374 674.293 738.388 673.571 C 735.326 672.458 731.343 672.291 728.175 671.385 C 725.042 670.49 723.137 669.159 719.926 668.427 C 716.746 667.703 713.385 667.447 710.151 666.844 C 706.939 666.246 703.665 665.901 700.423 665.385 C 697.189 664.87 693.495 664.818 690.255 664.348 C 687.005 663.876 684.081 662.921 680.849 662.457 C 677.589 661.989 673.692 661.921 670.475 661.423 C 667.211 660.917 663.803 659.507 660.608 658.93 Z"
       sodipodi:nodetypes="cssccsccsc" />
    <path
       id="path8"
       style="font-size:266.667px;font-family:Severed;-inkscape-font-specification:Severed;text-align:start;letter-spacing:10px;writing-mode:lr-tb;direction:ltr;text-anchor:start;fill:#aa2734;stroke:none;stroke-linecap:round;stroke-linejoin:round;stroke-opacity:1;fill-opacity:1;filter:url(#filter69)"
       d="M 662.335 647.902 C 665.485 648.471 668.288 649.677 671.457 650.179 C 674.62 650.68 678.579 652.362 681.75 652.834 C 684.92 653.306 688.143 652.633 691.31 653.113 C 694.481 653.593 697.089 654.258 700.247 654.785 C 703.412 655.312 707.341 656.511 710.482 657.123 C 713.632 657.736 717.427 657.236 720.542 657.972 C 723.663 658.709 726.389 659.351 729.465 660.249 C 732.538 661.147 734.997 662.151 738.015 663.248 C 739.997 663.969 741.985 665.324 743.912 666.139 C 745.85 666.96 747.24 667.26 749.134 668.158 L 759.574 668.811 L 767.944 668.605 L 778.107 669.789 L 787.906 668.777 L 796.575 669.569 L 796.431 675.993 L 796.025 684.245 L 796.76 692.336 C 799.29 693.322 800.68 694.917 803.312 695.717 C 805.898 696.502 808.889 695.91 811.596 696.474 C 813.389 696.847 815.312 697.14 817.131 697.322 C 818.947 697.503 820.327 698.299 822.156 698.385 L 822.829 687.761 L 821.922 677.61 L 822.801 668.445 L 822.6 658.189 L 823.812 648.021 L 823.718 638.355 L 823.286 628.243 L 822.632 618.536 L 823.629 609.178 L 823.142 599.637 L 823.313 588.317 C 823.313 585.454 823.154 583.283 822.757 580.582 C 822.345 577.776 820.514 575.863 819.674 573.233 C 818.823 570.568 818.599 566.652 817.308 564.167 C 816.037 561.718 814.429 560.304 812.732 558.029 C 811.1 555.842 809.067 553.939 807.041 551.913 C 805.019 549.874 802.586 546.477 800.404 544.834 C 798.132 543.123 797.001 541.765 794.556 540.483 C 792.07 539.181 788.686 539.555 786.02 538.695 C 783.387 537.846 780.648 537.327 777.839 536.91 C 775.134 536.508 772.413 535.505 769.545 535.505 L 760.526 535.162 L 751.167 536.042 L 742.874 535.309 L 733.477 535.648 L 725.352 534.986 L 716.923 535.855 C 714.055 535.855 710.362 535.411 707.656 535.813 C 704.848 536.23 702.766 537.169 700.133 538.018 C 697.468 538.877 694.367 538.978 691.881 540.28 C 689.435 541.562 687.928 544.484 685.656 546.195 C 683.474 547.838 680.583 548.691 678.562 550.73 C 676.536 552.756 674.107 554.938 672.475 557.125 C 670.777 559.4 670.817 562.843 669.546 565.291 C 668.256 567.777 665.856 569.765 665.005 572.43 C 664.165 575.06 663.199 577.598 662.787 580.403 C 662.39 583.105 663.085 585.645 663.085 588.508 L 662.669 599.321 L 662.23 608.766 L 662.244 617.904 L 662.291 629.788 L 662.195 637.998 L 662.573 648.621 Z M 715.681 561.474 L 725.649 562.273 L 733.488 561.81 L 742.362 562.257 L 752.599 562.108 L 760.306 561.343 L 769.966 562.26 C 772.383 562.26 774.294 562.384 776.482 562.966 C 778.737 563.565 781.592 565.494 783.604 566.712 C 785.53 567.877 786.794 568.095 788.496 569.826 C 790.24 571.513 791.315 574.015 792.485 575.946 C 793.699 577.951 795.533 580.042 796.128 582.311 C 796.701 584.493 795.634 585.928 795.634 588.354 L 797.252 598.753 L 795.571 606.912 L 796.382 616.522 L 796.268 624.949 L 796.254 633.309 L 796.512 643.055 L 785.665 642.582 L 777.718 642.498 L 767.801 642.28 L 758.05 642.555 L 746.985 641.423 L 737.668 641.531 L 728.259 643.143 L 718.593 641.533 L 709.8 641.682 L 699.21 642.593 L 690.236 641.728 L 689.983 632.608 L 690.38 625.222 L 689.859 615.291 L 690.092 606.208 L 689.32 597.032 L 689.411 589.673 C 689.411 587.247 689.591 583.959 690.163 581.777 C 690.759 579.508 692.364 577.193 693.578 575.188 C 694.747 573.257 694.763 571.787 696.506 570.1 C 698.193 568.357 701.411 567.516 703.342 566.347 C 705.347 565.133 707.625 563.579 709.894 562.983 C 712.076 562.41 714.551 562.011 716.977 562.011 Z" />
    <path
       id="path7"
       style="font-size:266.667px;font-family:Severed;-inkscape-font-specification:Severed;text-align:start;letter-spacing:10px;writing-mode:lr-tb;direction:ltr;text-anchor:start;fill:#7e3943;fill-opacity:1;stroke:none;stroke-linecap:round;stroke-linejoin:round;stroke-opacity:1;filter:url(#filter67)"
       d="M 474.812 654.016 C 471.405 655.052 469.403 655.882 467.584 656.627 C 464.559 657.865 462.614 658.775 460.152 660.309 C 458.494 661.342 455.967 661.792 452.747 663.483 C 450.817 664.496 449.215 664.847 446.304 666.217 C 443.869 667.363 440.355 669.108 437.876 670.153 L 439.303 680.225 L 437.608 690.272 L 438.207 698.995 L 439.216 710.219 L 437.462 720.355 L 437.246 728.881 L 437.468 738.103 L 437.5 747.983 L 438.441 759.037 C 438.441 761.932 438.338 763.934 438.753 766.697 C 439.18 769.539 440.033 772.993 440.891 775.677 C 441.758 778.388 443.167 779.611 444.466 782.142 C 445.754 784.65 447.317 787.111 449.021 789.423 C 450.68 791.673 451.611 793.924 453.658 795.971 C 455.627 797.94 458.419 799.707 460.588 801.318 C 462.809 802.967 463.708 804.344 466.118 805.609 C 468.547 806.884 471.792 809.288 474.393 810.163 C 476.972 811.03 478.879 810.712 481.606 811.177 C 484.268 811.631 488.172 812.565 490.957 812.627 C 488.306 812.39 484.949 811.352 482.407 809.636 C 480.263 808.188 477.85 806.036 475.937 803.616 C 474.311 801.56 473.435 798.853 472.069 796.142 C 470.66 793.326 470.287 791.274 469.293 788.252 C 468.331 785.327 467.079 782.377 466.482 779.183 C 465.924 776.202 464.573 772.814 464.315 769.536 C 464.079 766.532 463.981 762.508 463.981 759.206 L 464.56 751.529 L 465.72 742.405 L 464.404 732.998 L 465.089 724.404 L 464.392 715.089 L 464.893 706.38 L 464.515 697.97 L 465.057 688.395 L 464.39 679.735 L 474.796 678.904 L 483.187 678.178 L 491.695 678.185 C 495.061 678.185 497.834 678.206 501.01 678.456 C 504.376 678.722 507.228 678.845 510.356 679.408 C 513.682 680.008 516.859 680.815 519.887 681.773 C 523.102 682.791 527.645 685.483 530.489 686.928 C 533.135 688.229 535.573 689.389 537.447 690.83 C 539.795 692.636 540.691 694.448 541.96 696.48 C 543.413 698.81 543.741 701.355 543.981 703.993 C 543.902 700.564 544.152 696.894 543.588 693.739 C 542.994 690.418 543.061 686.689 541.86 683.644 C 540.657 680.595 538.272 677.614 536.389 674.813 C 534.611 672.169 532.92 669.578 530.473 667.131 C 528.429 665.086 526.615 663.854 524.367 662.236 C 522.046 660.565 518.925 658.355 516.407 657.125 C 513.868 655.886 510.783 655.236 508.063 654.431 C 505.383 653.638 502.873 653.17 500.035 652.786 C 497.285 652.414 494.281 652.263 491.4 652.263 L 482.712 652.62 Z"
       sodipodi:nodetypes="cscssccscsccssc" />
    <path
       id="path6"
       style="font-size:266.667px;font-family:Severed;-inkscape-font-specification:Severed;text-align:start;letter-spacing:10px;writing-mode:lr-tb;direction:ltr;text-anchor:start;fill:#aa2734;stroke:none;stroke-linecap:round;stroke-linejoin:round;stroke-opacity:1;fill-opacity:1;stroke-width:0.99999998;stroke-dasharray:none;filter:url(#filter65)"
       d="M 493.544 534.695 C 490.676 534.695 486.426 535.186 483.721 535.588 C 480.913 536.005 479.373 536.779 476.74 537.628 C 474.075 538.487 470.615 540.56 468.129 541.862 C 465.683 543.144 463.786 544.514 461.514 546.225 C 459.332 547.868 456.716 549.594 454.694 551.633 C 452.668 553.659 451.623 556.015 449.991 558.202 C 448.294 560.477 446.602 562.846 445.331 565.294 C 444.041 567.78 442.375 569.524 441.524 572.189 C 440.684 574.819 441.454 576.989 441.042 579.794 C 440.645 582.496 439.116 586.894 439.116 589.757 L 439.758 598.614 L 439.873 606.676 L 439.379 614.538 L 440.438 624.277 L 440.408 633.908 L 438.835 642.833 L 440.451 650.151 L 440.184 659.076 C 442.663 658.032 443.867 657.098 446.301 655.952 C 449.234 654.572 451.706 653.827 453.648 652.795 C 456.869 651.083 459.962 650.067 461.631 648.991 C 464.084 647.41 464.42 647.111 467.424 645.838 C 469.255 645.061 471.538 644.241 474.966 643.198 L 466.015 642.46 L 465.522 633.125 L 466.971 625.319 L 465.698 614.841 L 466.805 605.845 L 465.259 597.879 L 465.865 588.725 C 465.865 586.299 467.288 583.306 467.861 581.124 C 468.456 578.855 467.968 577.288 469.183 575.283 C 470.352 573.352 472.246 571.745 473.989 570.058 C 475.676 568.315 478.631 566.361 480.562 565.192 C 482.567 563.978 482.761 564.485 485.03 563.889 C 487.212 563.316 491.06 562.059 493.486 562.059 L 502.312 563.024 L 510.172 561.884 L 520.594 561.611 L 528.598 561.287 L 537.804 562.983 L 546.281 561.853 C 549.623 561.853 552.175 562.679 555.29 562.946 C 558.62 563.231 562.914 563.193 565.985 563.784 C 569.261 564.414 571.093 565.848 574.074 566.826 C 577.225 567.86 580.938 568.308 583.759 569.731 C 586.426 571.064 588.768 573.547 590.752 575.023 C 593.181 576.83 594.38 577.667 595.786 579.687 C 597.435 582.058 599.329 584.818 599.568 587.483 C 599.506 584.718 598.709 582.509 598.277 579.901 C 597.829 577.198 598.551 574.787 597.704 572.253 C 596.847 569.687 594.729 567.574 593.46 565.182 C 592.209 562.824 590.81 560.002 589.158 557.814 C 587.566 555.706 586.08 553.789 584.115 551.84 C 582.102 549.793 580.113 547.759 577.931 546.111 C 575.663 544.398 573.949 542.751 571.499 541.468 C 569.015 540.168 564.689 539.711 562.018 538.854 C 559.386 538.009 556.564 537.327 553.75 536.913 C 551.046 536.516 548.919 536.478 546.047 536.478 L 537.227 534.652 L 527.756 535.759 L 519.78 534.808 L 511.219 535.73 L 500.967 536.296 L 492.439 536.174 Z" />
  </g>
</svg>
